<?xml version="1.0" standalone="no"?>
<!DOCTYPE svg PUBLIC "-//W3C//DTD SVG 20010904//EN"
 "http://www.w3.org/TR/2001/REC-SVG-20010904/DTD/svg10.dtd">
<svg version="1.0" xmlns="http://www.w3.org/2000/svg"
 width="569.000000pt" height="569.000000pt" viewBox="0 0 569.000000 569.000000"
 preserveAspectRatio="xMidYMid meet">

<g transform="translate(0.000000,569.000000) scale(0.100000,-0.100000)"
fill="#000000" stroke="none">
<path d="M2625 5470 c-416 -43 -788 -163 -1130 -365 -340 -201 -654 -507 -870
-845 -79 -124 -199 -365 -250 -504 -249 -676 -210 -1424 110 -2071 301 -610
805 -1067 1435 -1303 688 -257 1429 -221 2085 103 273 134 488 288 700 500
412 412 664 922 751 1520 21 146 24 491 5 640 -92 733 -457 1368 -1036 1805
-352 265 -788 443 -1241 506 -135 18 -438 26 -559 14z m295 -227 c2 -2 -5 -6
-17 -9 -26 -7 -33 -44 -33 -181 0 -91 2 -104 21 -122 26 -24 55 -30 95 -19 58
15 67 36 72 169 4 104 2 122 -13 139 -18 20 -17 20 48 20 64 0 89 -12 48 -23
-22 -5 -28 -35 -35 -195 -4 -92 -2 -106 15 -123 19 -19 18 -19 -26 -19 -38 0
-45 3 -45 20 0 20 0 20 -32 0 -39 -24 -107 -26 -147 -5 -49 25 -59 64 -54 207
5 112 4 128 -11 134 -9 3 -16 10 -16 14 0 8 120 1 130 -7z m-400 -22 c0 -5 -7
-11 -15 -15 -19 -7 -19 -39 0 -169 24 -164 16 -151 88 -142 65 7 97 26 97 57
0 10 5 18 11 18 12 0 4 -69 -9 -81 -9 -8 -245 -39 -251 -33 -3 2 4 10 14 18
18 13 18 17 1 142 -23 169 -25 174 -47 174 -41 0 -16 18 39 28 31 5 60 10 65
11 4 0 7 -3 7 -8z m842 -22 c91 -19 145 -47 163 -85 9 -20 13 -43 9 -59 -7
-30 -49 -65 -77 -65 -15 0 -17 -3 -9 -13 6 -7 23 -46 37 -87 15 -41 34 -81 43
-87 23 -19 11 -24 -29 -13 -33 9 -37 15 -63 90 -27 77 -60 120 -91 120 -11 0
-35 -81 -35 -120 0 -11 7 -23 16 -28 9 -5 12 -12 7 -15 -10 -6 -123 23 -123
32 0 4 10 11 23 16 18 8 28 32 54 130 37 141 39 163 16 181 -22 17 -9 17 59 3z
m-1112 -64 c84 -43 58 -148 -43 -176 -23 -7 -45 -15 -50 -19 -4 -3 2 -34 14
-68 18 -53 24 -62 45 -62 43 0 25 -16 -36 -33 -75 -21 -77 -21 -56 2 16 18 15
26 -24 152 -43 139 -52 159 -78 159 -53 0 105 58 161 59 21 1 51 -6 67 -14z
m1536 -72 c47 -21 54 -28 36 -31 -25 -4 -40 -29 -102 -180 -41 -99 -42 -103
-25 -122 24 -27 9 -25 -61 7 -52 24 -56 28 -33 31 28 3 35 15 110 195 27 65
30 82 21 98 -23 36 -21 36 54 2z m223 -104 c84 -47 121 -86 121 -128 0 -44
-33 -81 -72 -81 -28 0 -29 -1 -14 -22 25 -36 20 -94 -10 -125 -36 -36 -87 -28
-191 32 -84 48 -103 66 -59 58 21 -4 30 6 79 89 98 167 99 169 80 190 -25 28
2 23 66 -13z m338 -225 c34 -33 42 -45 27 -41 -11 2 -27 -1 -35 -7 -27 -20
-150 -166 -161 -191 -24 -52 33 -115 105 -115 32 0 43 9 116 93 69 78 81 96
77 120 -3 15 -3 27 1 27 8 0 87 -71 92 -83 2 -5 -6 -6 -18 -2 -23 7 -32 -1
-154 -143 -62 -73 -69 -86 -59 -103 10 -15 9 -19 -1 -19 -20 0 -71 57 -58 64
21 13 11 26 -20 26 -64 0 -129 63 -129 125 0 37 13 58 98 157 62 73 73 92 68
113 -4 14 -4 25 -1 25 2 0 26 -21 52 -46z m-2952 -14 c21 -23 13 -39 -10 -20
-17 14 -33 5 -93 -49 -38 -34 -38 -33 26 -105 l33 -38 45 37 c32 27 44 43 41
56 -9 33 10 30 36 -5 25 -33 26 -56 2 -36 -9 8 -25 0 -56 -26 -24 -20 -45 -39
-47 -43 -1 -4 19 -31 45 -60 l48 -52 53 47 c47 41 53 51 48 76 -7 37 8 36 24
-1 14 -34 10 -38 -173 -190 -16 -13 -17 -12 -11 16 5 28 -3 41 -89 139 -84 97
-98 109 -123 106 -26 -3 -27 -2 -14 11 41 40 183 157 189 157 5 0 16 -9 26
-20z m1724 -36 c412 -60 777 -247 1067 -546 226 -233 363 -466 457 -778 113
-374 96 -802 -47 -1183 -183 -491 -577 -887 -1074 -1081 -267 -105 -601 -147
-889 -112 -575 69 -1073 391 -1386 896 -189 307 -288 725 -258 1093 46 553
315 1042 753 1365 240 177 474 278 783 337 151 29 429 34 594 9z m1598 -310
c13 -8 30 -29 39 -47 9 -17 21 -35 27 -39 6 -3 -2 -17 -19 -32 -34 -30 -49
-33 -39 -8 19 43 17 73 -6 98 -29 31 -64 31 -84 0 -13 -19 -15 -41 -9 -113 6
-86 6 -89 -20 -120 -54 -64 -141 -49 -177 32 -11 25 -24 45 -29 45 -20 0 -9
18 26 45 38 29 58 27 31 -3 -25 -28 -21 -78 8 -107 30 -31 58 -32 86 -4 20 20
21 29 16 100 -8 94 4 134 47 160 33 21 64 19 103 -7z m-1128 -3490 c16 -44 8
-55 -17 -24 -40 49 -133 14 -118 -44 7 -30 39 -48 114 -66 93 -22 135 -76 112
-145 -14 -41 -43 -61 -103 -70 -26 -4 -50 -12 -54 -18 -3 -5 -14 12 -24 39
-10 26 -17 49 -15 51 2 2 17 -10 34 -27 17 -17 41 -30 55 -30 32 0 77 36 77
61 0 42 -20 58 -104 84 -94 29 -115 47 -123 102 -7 53 25 90 92 108 28 8 52
14 55 14 4 1 12 -15 19 -35z m-1292 -12 c7 -4 15 -73 23 -182 10 -155 14 -177
32 -192 24 -21 12 -23 -47 -7 -69 18 -73 20 -47 30 23 9 26 26 16 92 -6 34
-10 38 -57 52 -28 8 -51 14 -52 12 -64 -94 -66 -98 -54 -113 18 -21 9 -24 -39
-11 -46 12 -54 24 -19 29 16 2 48 42 120 151 53 81 101 147 105 147 4 0 12 -4
19 -8z m1013 -41 c0 -5 -7 -11 -15 -15 -20 -7 -19 -40 5 -183 15 -91 25 -122
40 -135 21 -17 20 -17 -16 -24 -29 -5 -40 -3 -49 10 -11 15 -14 15 -25 0 -33
-39 -123 -59 -165 -36 -44 23 -56 50 -78 174 -19 107 -25 124 -45 133 -12 5
-22 12 -22 15 0 7 123 29 129 24 3 -3 -4 -10 -14 -18 -17 -13 -18 -19 -6 -102
25 -174 41 -204 112 -204 31 0 47 6 70 29 34 34 34 34 13 160 -18 112 -28 141
-49 141 -8 0 -15 4 -15 9 0 5 26 13 58 19 31 5 60 10 65 11 4 0 7 -3 7 -8z
m-705 -26 c6 -1 51 -66 100 -144 57 -90 92 -137 96 -129 4 8 11 61 15 120 6
95 5 108 -10 114 -32 12 -15 21 32 17 45 -5 85 -23 50 -23 -29 0 -38 -27 -54
-176 -9 -82 -20 -153 -24 -157 -7 -8 -85 105 -175 251 -21 34 -41 62 -44 62
-7 0 -31 -191 -31 -242 0 -18 7 -29 21 -33 32 -10 13 -20 -34 -16 -41 3 -79
21 -44 21 25 0 33 29 48 174 13 128 13 129 -9 147 -12 9 -22 20 -22 24 0 5 56
-1 85 -10z"/>
<path d="M3380 5167 c0 -1 -9 -33 -20 -72 -22 -78 -19 -85 43 -85 45 0 77 28
77 69 0 43 -9 60 -41 76 -24 13 -59 20 -59 12z"/>
<path d="M2122 5119 c-16 -6 -22 -15 -18 -26 24 -87 41 -133 48 -133 5 0 24 6
43 14 61 26 72 80 26 127 -30 30 -58 35 -99 18z"/>
<path d="M3972 4869 c-19 -33 -32 -62 -30 -63 15 -14 52 -26 76 -26 33 0 57
23 67 62 6 22 1 33 -23 58 -17 16 -36 30 -44 30 -7 0 -28 -28 -46 -61z"/>
<path d="M3892 4731 c-17 -32 -32 -64 -32 -70 0 -14 59 -51 83 -51 31 0 67 45
67 84 0 26 -8 41 -35 65 -20 17 -39 31 -43 31 -4 0 -22 -26 -40 -59z"/>
<path d="M2849 4133 c-20 -24 -129 -199 -129 -207 0 -4 16 -4 35 0 l35 6 0
-492 0 -492 -37 22 c-21 13 -209 122 -418 243 -209 121 -381 221 -383 222 -2
2 4 17 12 34 9 16 16 33 16 36 0 4 -58 5 -130 4 -71 -2 -130 -6 -130 -9 0 -4
23 -48 50 -99 28 -51 50 -96 50 -100 0 -5 6 -14 13 -20 11 -8 16 -5 25 14 6
14 17 25 23 25 6 0 122 -64 258 -142 135 -78 318 -183 405 -233 88 -51 161
-96 163 -101 1 -5 -34 -30 -80 -55 -45 -25 -232 -132 -415 -237 -183 -106
-336 -192 -341 -192 -4 0 -14 15 -23 33 l-15 32 -57 -114 c-32 -62 -55 -115
-52 -118 6 -6 239 -23 244 -18 2 2 -5 17 -17 34 l-21 29 262 153 c145 84 331
192 414 241 84 48 159 91 168 94 15 6 16 -38 16 -485 l0 -491 -41 0 c-22 0
-39 -4 -37 -8 8 -20 134 -211 139 -211 6 -1 139 194 139 204 0 3 -16 5 -35 5
l-35 0 0 494 0 495 233 -136 c127 -74 291 -169 362 -211 72 -42 155 -89 185
-105 30 -17 57 -32 59 -34 3 -2 -3 -17 -12 -32 -9 -16 -17 -32 -17 -35 0 -6
242 4 249 11 6 5 -101 223 -109 223 -4 0 -13 -14 -21 -30 l-14 -30 -220 126
c-121 69 -305 175 -410 234 -104 60 -198 115 -208 123 -17 12 -7 20 110 87 70
40 211 122 313 180 102 59 233 135 292 168 l108 61 17 -30 c9 -16 20 -29 23
-29 4 0 113 188 128 222 3 6 -248 16 -257 10 -3 -1 2 -15 11 -30 l16 -27 -76
-44 c-42 -25 -212 -123 -377 -219 -165 -96 -319 -185 -342 -198 l-43 -25 0
481 0 480 35 0 c19 0 35 3 35 6 0 4 -24 47 -54 98 -29 50 -58 99 -63 109 -9
17 -10 17 -24 0z"/>
<path d="M2218 764 l-37 -59 32 -12 c53 -19 57 -17 56 30 -1 23 -4 55 -8 71
-6 29 -6 29 -43 -30z"/>
</g>
</svg>
